<?xml version="1.0" standalone="no"?>
<!DOCTYPE svg PUBLIC "-//W3C//DTD SVG 20010904//EN"
 "http://www.w3.org/TR/2001/REC-SVG-20010904/DTD/svg10.dtd">
<svg version="1.0" xmlns="http://www.w3.org/2000/svg"
 width="47.000000pt" height="93.000000pt" viewBox="0 0 47.000000 93.000000"
 preserveAspectRatio="xMidYMid meet">

<g transform="translate(0.000000,93.000000) scale(0.100000,-0.100000)"
fill="#000000" stroke="none">
<path d="M110 757 c-31 -33 -36 -52 -21 -75 6 -10 11 -6 19 17 7 21 16 29 25
25 8 -3 18 0 22 5 3 6 11 9 16 6 20 -13 7 -48 -35 -88 -50 -48 -66 -75 -66
-110 0 -37 30 -66 85 -86 78 -26 84 -32 97 -94 11 -52 10 -58 -9 -79 -26 -29
-33 -51 -23 -68 5 -9 10 -3 15 19 14 66 25 40 25 -63 0 -91 -2 -105 -17 -109
-14 -4 -13 -5 4 -6 20 -1 22 4 28 118 l7 119 42 18 c70 31 72 34 29 70 l-38
32 25 21 c14 11 33 18 43 16 9 -3 26 -8 37 -11 46 -13 8 74 -52 119 -18 14
-52 30 -75 36 -53 14 -100 -3 -134 -48 -25 -34 -44 -39 -53 -15 -12 31 -5 46
44 98 40 43 50 60 50 88 0 69 -46 92 -90 45z m213 -385 l27 -28 -40 -23 -40
-22 0 50 c0 60 13 65 53 23z"/>
</g>
</svg>
