<?xml version="1.0" standalone="no"?>
<!DOCTYPE svg PUBLIC "-//W3C//DTD SVG 20010904//EN"
 "http://www.w3.org/TR/2001/REC-SVG-20010904/DTD/svg10.dtd">
<svg version="1.0" xmlns="http://www.w3.org/2000/svg"
 width="516.000000pt" height="105.000000pt" viewBox="0 0 516.000000 105.000000"
 preserveAspectRatio="xMidYMid meet">

<g transform="translate(0.000000,105.000000) scale(0.100000,-0.100000)"
fill="#000000" stroke="none">
<path d="M1840 817 c-31 -33 -36 -52 -21 -75 6 -10 11 -6 19 17 7 21 16 29 25
25 8 -3 18 0 22 5 3 6 11 9 16 6 20 -13 7 -48 -35 -88 -50 -48 -66 -75 -66
-110 0 -37 30 -66 85 -86 78 -26 84 -32 97 -94 11 -52 10 -58 -9 -79 -26 -29
-33 -51 -23 -68 5 -9 10 -3 15 19 14 66 25 40 25 -63 0 -91 -2 -105 -17 -109
-14 -4 -13 -5 4 -6 20 -1 22 4 28 118 l7 119 42 18 c70 31 72 34 29 70 l-38
32 25 21 c14 11 33 18 43 16 9 -3 26 -8 37 -11 46 -13 8 74 -52 119 -18 14
-52 30 -75 36 -53 14 -100 -3 -134 -48 -25 -34 -44 -39 -53 -15 -12 31 -5 46
44 98 40 43 50 60 50 88 0 69 -46 92 -90 45z m213 -385 l27 -28 -40 -23 -40
-22 0 50 c0 60 13 65 53 23z"/>
<path d="M264 666 c-62 -27 -83 -99 -44 -149 11 -14 50 -37 89 -52 75 -28 95
-44 89 -72 -8 -43 -100 -41 -120 3 -11 23 -16 25 -47 19 -45 -9 -47 -10 -35
-42 19 -53 105 -86 188 -72 50 8 96 56 96 99 0 64 -26 89 -134 128 -57 20 -76
42 -57 66 26 31 100 15 113 -24 2 -6 15 -6 40 0 29 8 36 15 31 28 -24 68 -130
102 -209 68z"/>
<path d="M2845 662 c-69 -33 -105 -94 -105 -178 0 -106 79 -184 188 -184 96 0
153 40 178 128 26 87 -6 182 -73 223 -48 30 -137 35 -188 11z m149 -61 c41
-27 55 -57 56 -118 0 -44 -5 -58 -27 -83 -72 -80 -203 -41 -219 65 -16 111
101 194 190 136z"/>
<path d="M4094 661 c-134 -61 -140 -277 -8 -341 42 -21 130 -26 169 -10 15 6
27 1 47 -17 20 -19 33 -24 53 -19 l26 7 -29 35 -29 35 24 46 c39 78 23 185
-35 236 -52 46 -150 59 -218 28z m153 -61 c41 -25 55 -52 56 -110 2 -124 -127
-184 -212 -99 -108 107 27 288 156 209z"/>
<path d="M550 485 l0 -185 40 0 40 0 0 75 0 75 80 0 80 0 0 -75 0 -75 40 0 40
0 0 185 0 185 -40 0 -40 0 0 -75 0 -75 -80 0 -80 0 0 75 0 75 -40 0 -40 0 0
-185z"/>
<path d="M960 485 l0 -185 110 0 110 0 0 35 0 35 -70 0 -70 0 0 40 0 39 63 3
c62 3 62 3 65 36 l3 32 -66 0 -66 0 3 43 3 42 68 3 c67 3 67 3 67 32 l0 30
-110 0 -110 0 0 -185z"/>
<path d="M1226 658 c4 -7 32 -50 61 -96 l53 -83 0 -89 0 -90 40 0 40 0 0 90 0
91 60 94 59 95 -44 0 c-42 0 -44 -1 -75 -55 -17 -30 -34 -57 -38 -59 -4 -2
-23 22 -42 55 -33 58 -35 59 -78 59 -32 0 -41 -3 -36 -12z"/>
<path d="M2422 488 l3 -183 102 0 c92 0 104 2 126 23 14 13 27 37 31 53 7 39
-18 99 -44 106 -20 5 -20 6 -3 25 12 13 18 36 18 65 0 37 -5 49 -28 69 -25 21
-37 24 -118 24 l-89 0 2 -182z m163 112 c15 -16 17 -26 9 -48 -8 -24 -15 -27
-57 -30 l-47 -3 0 50 0 51 38 0 c26 0 45 -7 57 -20z m20 -150 c18 -15 20 -61
3 -78 -7 -7 -36 -12 -65 -12 l-53 0 0 56 0 57 50 -5 c27 -3 56 -11 65 -18z"/>
<path d="M3190 534 c0 -152 12 -194 61 -219 37 -19 122 -19 159 0 51 26 60 58
60 215 l0 140 -30 0 -30 0 0 -135 c0 -121 -2 -137 -20 -155 -31 -31 -68 -36
-98 -13 -35 26 -40 47 -41 186 l-1 117 -30 0 -30 0 0 -136z"/>
<path d="M3530 645 c0 -23 4 -25 45 -25 l45 0 0 -160 0 -160 35 0 35 0 0 160
0 160 45 0 c41 0 45 2 45 25 l0 25 -125 0 -125 0 0 -25z"/>
<path d="M3842 488 l3 -183 33 -3 32 -3 0 185 0 186 -35 0 -35 0 2 -182z"/>
<path d="M4450 530 c0 -157 9 -189 60 -215 37 -19 122 -19 159 0 49 25 61 67
61 219 l0 136 -30 0 -30 0 0 -119 c0 -65 -5 -132 -11 -149 -21 -60 -111 -64
-138 -5 -6 13 -11 79 -11 148 l0 125 -30 0 -30 0 0 -140z"/>
<path d="M4830 485 l0 -185 105 0 105 0 0 30 0 30 -75 0 -75 0 0 50 0 50 65 0
65 0 0 30 0 30 -66 0 -65 0 3 48 3 47 73 3 c69 3 72 4 72 27 0 25 0 25 -105
25 l-105 0 0 -185z"/>
</g>
</svg>
